<svg width="40" height="40" viewBox="0 0 40 40" fill="none" xmlns="http://www.w3.org/2000/svg">
<rect width="40" height="40" fill="white"/>
<rect x="0.5" y="0.5" width="39" height="39" stroke="#072038" stroke-opacity="0.78"/>
<path d="M19.9975 16.6652C18.1613 16.6652 16.6627 18.1638 16.6627 20C16.6627 21.8362 18.1613 23.3348 19.9975 23.3348C21.8337 23.3348 23.3323 21.8362 23.3323 20C23.3323 18.1638 21.8337 16.6652 19.9975 16.6652ZM29.9993 20C29.9993 18.6191 30.0118 17.2506 29.9342 15.8722C29.8567 14.2711 29.4914 12.8502 28.3206 11.6794C27.1473 10.5061 25.7289 10.1433 24.1278 10.0658C22.7469 9.98824 21.3784 10.0007 20 10.0007C18.6191 10.0007 17.2506 9.98824 15.8722 10.0658C14.2711 10.1433 12.8502 10.5086 11.6794 11.6794C10.5061 12.8527 10.1433 14.2711 10.0658 15.8722C9.98824 17.2531 10.0007 18.6216 10.0007 20C10.0007 21.3784 9.98824 22.7494 10.0658 24.1278C10.1433 25.7289 10.5086 27.1498 11.6794 28.3206C12.8527 29.4939 14.2711 29.8567 15.8722 29.9342C17.2531 30.0118 18.6216 29.9993 20 29.9993C21.3809 29.9993 22.7494 30.0118 24.1278 29.9342C25.7289 29.8567 27.1498 29.4914 28.3206 28.3206C29.4939 27.1473 29.8567 25.7289 29.9342 24.1278C30.0143 22.7494 29.9993 21.3809 29.9993 20ZM19.9975 25.131C17.1581 25.131 14.8665 22.8394 14.8665 20C14.8665 17.1606 17.1581 14.869 19.9975 14.869C22.8369 14.869 25.1285 17.1606 25.1285 20C25.1285 22.8394 22.8369 25.131 19.9975 25.131ZM25.3386 15.8572C24.6757 15.8572 24.1403 15.3218 24.1403 14.6589C24.1403 13.9959 24.6757 13.4606 25.3386 13.4606C26.0016 13.4606 26.5369 13.9959 26.5369 14.6589C26.5371 14.8163 26.5063 14.9722 26.4461 15.1177C26.386 15.2632 26.2977 15.3954 26.1864 15.5067C26.0751 15.618 25.9429 15.7062 25.7974 15.7664C25.6519 15.8265 25.496 15.8574 25.3386 15.8572Z" fill="#072038" fill-opacity="0.78"/>
</svg>
