<svg width="18" height="19" viewBox="0 0 18 19" fill="none" xmlns="http://www.w3.org/2000/svg">
<path d="M7.84335 4.39279L5.13696 1.2688C4.82497 0.908806 4.25297 0.910406 3.89057 1.2736L1.66498 3.50319C1.00259 4.16639 0.812987 5.15118 1.19618 5.94078C3.48547 10.6807 7.30819 14.5088 12.0449 16.8047C12.8337 17.1879 13.8177 16.9983 14.4801 16.3351L16.7265 14.0847C17.0905 13.7207 17.0913 13.1455 16.7281 12.8335L13.5921 10.1416C13.2641 9.85996 12.7545 9.89676 12.4257 10.2264L11.3345 11.3191C11.2787 11.3777 11.2051 11.4163 11.1252 11.429C11.0453 11.4417 10.9634 11.4279 10.8921 11.3895C9.1085 10.3624 7.62894 8.88095 6.60416 7.09597C6.56578 7.02457 6.55188 6.94255 6.5646 6.8625C6.57731 6.78244 6.61594 6.70877 6.67456 6.65277L7.76255 5.56398C8.09215 5.23278 8.12815 4.72078 7.84335 4.39199V4.39279Z" stroke="#FF6347" stroke-width="2" stroke-linecap="round" stroke-linejoin="round"/>
</svg>
