<svg width="40" height="40" viewBox="0 0 40 40" fill="none" xmlns="http://www.w3.org/2000/svg">
<rect width="40" height="40" fill="white"/>
<rect x="0.5" y="0.5" width="39" height="39" stroke="#072038" stroke-opacity="0.78"/>
<path d="M32.6183 12.3758C31.713 12.7663 30.7278 13.0473 29.713 13.1568C30.7666 12.5309 31.5556 11.542 31.9319 10.3758C30.9433 10.9639 29.8602 11.3763 28.7308 11.5947C28.2587 11.09 27.6878 10.688 27.0535 10.4136C26.4193 10.1393 25.7354 9.99849 25.0444 10C22.2485 10 20 12.2663 20 15.0473C20 15.4379 20.0473 15.8284 20.1243 16.2042C15.9379 15.9852 12.2041 13.9852 9.72189 10.9231C9.2696 11.6956 9.03258 12.5752 9.0355 13.4704C9.0355 15.2219 9.92603 16.7663 11.284 17.6746C10.4837 17.643 9.7022 17.4231 9.00296 17.0326V17.0947C9.00296 19.5473 10.7367 21.5799 13.0473 22.0473C12.6135 22.16 12.1672 22.2177 11.7189 22.2189C11.3905 22.2189 11.0799 22.1864 10.7663 22.142C11.4053 24.142 13.2663 25.5947 15.4822 25.642C13.7485 27 11.5769 27.7988 9.21893 27.7988C8.79586 27.7988 8.40533 27.784 8 27.7367C10.2367 29.1716 12.8905 30 15.7485 30C25.0266 30 30.1035 22.3136 30.1035 15.642C30.1035 15.4231 30.1035 15.2042 30.0887 14.9852C31.071 14.2663 31.9319 13.3757 32.6183 12.3758Z" fill="#072038" fill-opacity="0.78"/>
</svg>
